<svg width="2500" height="2500" viewBox="0 0 2500 2500" fill="none" xmlns="http://www.w3.org/2000/svg">
<path fill-rule="evenodd" clip-rule="evenodd" d="M611.07 643.197C656.711 699.019 736.747 741.884 740.146 743.686C740.998 744.136 741.934 744.407 742.895 744.481C743.856 744.555 744.822 744.432 745.733 744.118C746.645 743.805 747.482 743.308 748.194 742.658C748.906 742.008 749.477 741.219 749.873 740.34C750.729 738.434 841.699 548.051 1245.1 548.051C1648.57 548.051 1741.97 739.419 1742.85 741.352C1743.25 742.221 1743.83 742.998 1744.54 743.638C1745.25 744.278 1746.09 744.767 1747 745.075C1747.9 745.383 1748.86 745.504 1749.82 745.43C1750.77 745.356 1751.7 745.09 1752.55 744.646C1756.68 742.467 1854.59 690.627 1889.01 640.888C1889.14 640.707 1889.19 640.486 1889.28 640.291C1889.72 639.524 1890 638.678 1890.11 637.801L1890.21 637.153C1890.24 636.319 1890.13 635.487 1889.89 634.689C1889.86 634.637 1889.89 634.598 1889.86 634.546C1889.81 634.403 1889.68 634.312 1889.63 634.183C1889.45 633.755 1889.31 633.327 1889.05 632.925C1883.65 624.896 1750.66 436.173 1245.1 436.173C739.367 436.173 615.558 626.92 610.539 635.039C610.552 635.039 607.595 638.956 611.07 643.197Z" fill="white"/>
<path fill-rule="evenodd" clip-rule="evenodd" d="M1245.1 533.926C870.258 533.926 760.469 692.132 740.508 727.76C723.972 718.369 677.644 690.653 641.549 655.466L685.555 671.678C686.942 672.191 688.455 672.253 689.88 671.858C691.305 671.462 692.569 670.628 693.493 669.473C849.26 475.238 1240.84 491.438 1244.79 491.619C1244.9 491.619 1245.01 491.567 1245.11 491.567C1245.23 491.567 1245.33 491.619 1245.45 491.619C1249.39 491.438 1641.04 475.316 1796.73 669.473C1798.61 671.808 1801.75 672.703 1804.56 671.717L1860.98 652.068C1827.06 685.971 1770.77 718.473 1752.2 728.758C1732.02 693.325 1620.51 533.926 1245.1 533.926Z" fill="black"/>
<path fill-rule="evenodd" clip-rule="evenodd" d="M593.846 651.627C548.439 716.502 472.255 858.261 472.255 1078.68C472.255 1267.28 562.499 1497.02 764.126 1585.23C970.022 1675.3 1200.18 1665.99 1250 1665.99C1299.82 1665.99 1529.98 1675.32 1735.87 1585.23C1937.51 1497.02 2027.74 1267.26 2027.74 1078.68C2027.74 858.261 1951.57 716.515 1906.15 651.627C1905.39 650.546 1904.33 649.703 1903.11 649.198C1901.89 648.693 1900.54 648.546 1899.24 648.774C1898.12 648.581 1896.97 648.664 1895.88 649.017C1894.8 649.369 1893.82 649.98 1893.03 650.797C1892.82 651.005 1887.89 656.076 1878.54 664.493C1877.59 665.008 1876.77 665.741 1876.15 666.633C1844.95 694.375 1771.28 753.245 1662.23 799.586L1624.81 815.267C1549.58 846.576 1469.1 880.115 1398.65 931.722L1398.52 931.826C1337.97 976.195 1284.85 1033.95 1248.85 1115.18C1170.95 939.348 1012.86 873.514 872.93 815.267L835.512 799.586C688.15 736.955 605.584 651.601 604.728 650.797C598.062 644.636 593.846 651.627 593.846 651.627Z" fill="white"/>
<path fill-rule="evenodd" clip-rule="evenodd" d="M1242.33 1135.84C1242.33 1135.87 1242.36 1135.88 1242.37 1135.91C1242.63 1136.53 1243.06 1137.09 1243.49 1137.62C1243.63 1137.8 1243.72 1138.03 1243.88 1138.19C1244.05 1138.34 1244.28 1138.43 1244.45 1138.58C1244.96 1139.04 1245.54 1139.42 1246.17 1139.71L1246.23 1139.74C1246.54 1139.87 1246.85 1139.84 1247.17 1139.91C1247.73 1140.06 1248.27 1140.22 1248.86 1140.22C1249.44 1140.22 1249.99 1140.06 1250.54 1139.91C1250.86 1139.85 1251.18 1139.87 1251.49 1139.74C1251.49 1139.74 1251.52 1139.71 1251.54 1139.71C1252.17 1139.42 1252.75 1139.04 1253.25 1138.58C1253.44 1138.43 1253.68 1138.34 1253.83 1138.19C1253.99 1138.03 1254.07 1137.79 1254.21 1137.62C1254.68 1137.11 1255.06 1136.53 1255.34 1135.91L1255.38 1135.84C1277.02 1081.98 1306.35 1038.27 1340.52 1001.82C1329.7 1038.42 1329.52 1064.2 1329.52 1065.53C1329.54 1067.11 1330.09 1068.63 1331.07 1069.86C1332.06 1071.09 1333.43 1071.95 1334.96 1072.31C1336.49 1072.68 1338.1 1072.52 1339.54 1071.86C1340.97 1071.2 1342.14 1070.08 1342.86 1068.68C1345.04 1064.34 1355.33 1054.12 1361.94 1048.24C1363.29 1047.04 1364.12 1045.36 1364.28 1043.56C1367.54 1004.39 1401.38 951.916 1407.28 943.032C1436.76 921.437 1468.06 903.046 1500.02 886.665C1460.63 918.026 1411.3 963.187 1383.11 1011.21C1382.26 1012.7 1381.98 1014.45 1382.33 1016.13C1382.67 1017.8 1383.61 1019.3 1384.97 1020.34C1386.34 1021.37 1388.03 1021.88 1389.74 1021.76C1391.45 1021.64 1393.05 1020.91 1394.26 1019.7C1394.87 1019.07 1457.19 956.533 1609.17 914.421C1644.36 904.667 1734.26 872.865 1842.25 809.871C1843.81 808.959 1844.96 807.483 1845.47 805.747L1887.88 675.051L1890.43 672.729C1888.05 719.239 1878.9 764.321 1868 803.231C1854.31 812.115 1761.07 871.763 1681.32 900.997C1664.76 907.067 1645.86 912.864 1625.82 918.986C1508.33 954.977 1348.36 1004.09 1248.83 1216.06C1149.33 1004.08 989.372 954.964 871.866 918.973C851.841 912.838 832.931 907.054 816.381 900.984C736.643 871.75 643.391 812.089 629.695 803.218C612.082 763.777 605.727 720.056 602.912 682.703C640.978 834.28 805.357 887.91 881.347 912.423C995.896 949.374 1061.73 986.662 1062.38 987.038C1063.67 987.791 1065.18 988.111 1066.67 987.95C1068.16 987.789 1069.56 987.157 1070.66 986.145C1071.77 985.132 1072.52 983.793 1072.81 982.323C1073.1 980.853 1072.91 979.329 1072.27 977.972C1055.69 942.046 1024.77 910.011 996.739 886.185C1097.06 937.442 1191.09 1008.33 1242.33 1135.84Z" fill="black"/>
<path fill-rule="evenodd" clip-rule="evenodd" d="M1242.41 1235.69C1242.55 1236.03 1242.81 1236.24 1243.01 1236.54C1243.28 1236.99 1243.53 1237.43 1243.9 1237.81C1244.28 1238.18 1244.73 1238.43 1245.17 1238.7C1245.46 1238.89 1245.69 1239.16 1246.02 1239.3C1246.07 1239.31 1246.12 1239.3 1246.19 1239.33C1246.68 1239.53 1247.22 1239.59 1247.76 1239.66C1248.13 1239.73 1248.49 1239.87 1248.87 1239.87C1249.25 1239.87 1249.61 1239.73 1249.99 1239.66C1250.53 1239.59 1251.06 1239.53 1251.56 1239.33C1251.61 1239.3 1251.67 1239.31 1251.72 1239.3C1252.05 1239.16 1252.27 1238.89 1252.55 1238.7C1253 1238.43 1253.45 1238.18 1253.83 1237.81C1254.2 1237.43 1254.45 1236.99 1254.72 1236.55C1254.9 1236.25 1255.17 1236.03 1255.32 1235.71C1351.67 1017.71 1512.53 968.453 1629.99 932.475C1650.21 926.288 1669.3 920.438 1686.22 914.239C1753.43 889.596 1829.8 843.904 1861.95 823.801C1845.13 877.846 1826.61 916.314 1822.96 923.72C1784.19 955.029 1727.64 970.904 1662.23 989.23C1588.16 1009.98 1504.18 1033.51 1426.04 1086.01C1326.16 1153.12 1267.56 1267.77 1248.86 1309.05C1230.14 1267.76 1171.56 1153.12 1071.68 1086.01C993.522 1033.5 909.569 1009.98 835.499 989.23C770.092 970.904 713.544 955.029 674.777 923.72C671.12 916.327 652.612 877.846 635.777 823.801C667.942 843.891 744.295 889.596 811.518 914.239C828.443 920.451 847.535 926.288 867.742 932.475C985.196 968.427 1146.06 1017.7 1242.41 1235.69Z" fill="black"/>
<path fill-rule="evenodd" clip-rule="evenodd" d="M1255.42 1329.43C1256.02 1327.91 1316.86 1176.33 1433.92 1097.7C1510.2 1046.45 1592.98 1023.25 1666.03 1002.78C1729.47 985.015 1784.76 969.529 1825.29 939.725C1832.48 996.039 1858.83 1269.71 1715.87 1410.18C1577.46 1546.2 1342.38 1556.64 1249.99 1554.82C1251.17 1554.82 1247.7 1554.76 1249.99 1554.82C1252.27 1554.76 1248.82 1554.82 1249.99 1554.82C1157.59 1556.64 922.513 1546.2 784.1 1410.18C642.405 1270.91 667.086 1000.71 674.518 941.177C714.854 969.996 769.34 985.3 831.686 1002.77C904.744 1023.24 987.543 1046.44 1063.82 1097.68C1180.96 1176.38 1241.7 1327.9 1242.31 1329.41C1242.31 1329.43 1247.65 1345.06 1255.42 1329.43Z" fill="black"/>
<path fill-rule="evenodd" clip-rule="evenodd" d="M615.376 804.242C633.547 870.077 656.75 918.986 661.873 929.4C657.308 958.971 620.603 1225.33 745.411 1387.64C717.163 1376.36 663.766 1348.06 620.006 1284.31C619.034 1282.62 499.906 1072.31 615.376 804.242ZM1837.78 927.131C1837.7 926.794 1837.52 926.508 1837.43 926.184C1843.15 914.213 1857.54 882.593 1871.63 839.689C1943.55 1054.1 1876.84 1239.79 1876.14 1241.69L1875.91 1242.43C1849.41 1323.86 1792.19 1362.34 1762.02 1377.53C1882.13 1208.57 1839.81 939.504 1837.78 927.131Z" fill="black"/>
<path fill-rule="evenodd" clip-rule="evenodd" d="M2013.66 1078.67C2013.66 1262.67 1924.76 1483.9 1730.22 1572.3C1554.7 1652.09 1287.83 1653.84 1250 1653.84C1212.17 1653.84 968.115 1657.72 769.768 1572.3C583.094 1491.93 495.25 1284.28 487.04 1105.97C529.296 1232.19 592.316 1286.25 604.001 1295.45C653.74 1443.16 781.181 1546.05 972.771 1593.01C1052.05 1612.44 1163.72 1618.39 1226.72 1619.94C1221.14 1620.2 1230.7 1620.52 1250 1620.34C1269.31 1620.52 1278.87 1620.18 1273.29 1619.94C1336.26 1618.39 1447.93 1612.44 1527.22 1593.01C1719.74 1545.81 1847.5 1442.19 1896.72 1293.32C1897.55 1290.88 1978.47 1042.8 1885.58 797.926C1885.32 797.265 1884.92 796.746 1884.52 796.214C1894.27 759.25 1902.2 717.462 1904.48 674.389C1949.29 743.362 2013.66 877.483 2013.66 1078.67Z" fill="black"/>
<path fill-rule="evenodd" clip-rule="evenodd" d="M1900.86 1896.72V2063.81H1720.37C1720.37 2063.81 1661.98 2063.18 1653.7 2003.73C1639.16 2046.94 1609.79 2063.13 1577.95 2063.13H1411.58V1893.2L1200.07 2063.8H985.041C985.041 2063.8 947.882 2063.4 928.635 2033.08V2063.8H851.621V1931.26C851.621 1931.26 856.251 1900.94 819.598 1900.94H794.696V2063.8H719.952V1900.94H664.26V2063.8H586V1832.58H845.434C845.434 1832.58 928.635 1826.92 928.635 1918.58V1945.05C947.61 1916.4 985.093 1917.87 997.012 1917.87H1095.01C1095.01 1917.87 1099.94 1894.61 1064.69 1894.61H942.02V1832.58H1096.41C1096.41 1832.58 1165.52 1829.74 1165.52 1896.71V1999.67L1376.31 1832.58H1583.61C1583.61 1832.58 1663.28 1829.74 1663.28 1934.79C1663.28 1938.82 1663.18 1942.66 1663.02 1946.46C1681.69 1916.32 1720.22 1917.87 1732.36 1917.87H1830.37C1830.37 1917.87 1835.29 1894.61 1800.05 1894.61H1677.37V1832.58H1831.76C1831.75 1832.59 1900.86 1829.75 1900.86 1896.72Z" fill="white"/>
<path fill-rule="evenodd" clip-rule="evenodd" d="M1224.03 2063.81L1307.24 1995.45H1398.88V2063.81H1224.03ZM1352.36 1832.59L1269.16 1900.95H1177.5V1832.59H1352.36Z" fill="white"/>
<path fill-rule="evenodd" clip-rule="evenodd" d="M1747.86 1969.71H1828.59V2000.03H1746.47C1746.47 2000.03 1729.54 2001.42 1729.54 1984.85C1729.54 1970.77 1743.27 1969.71 1747.86 1969.71ZM1013.07 1969.71H1093.79V2000.03H1011.65C1011.65 2000.03 994.742 2001.42 994.742 1984.85C994.742 1970.77 1008.48 1969.71 1013.07 1969.71ZM1556.8 1995.45H1486.66V1897.44H1557.51C1557.51 1897.44 1591.35 1900.25 1591.35 1943.62C1591.35 1986.63 1575.48 1995.45 1556.8 1995.45Z" fill="black"/>
<path fill-rule="evenodd" clip-rule="evenodd" d="M1952.3 1897.59C1970.08 1897.59 1984.54 1883.16 1984.54 1865.38C1984.54 1847.59 1970.08 1833.13 1952.3 1833.13C1934.54 1833.13 1920.08 1847.59 1920.08 1865.38C1920.08 1883.16 1934.54 1897.59 1952.3 1897.59Z" fill="white"/>
<path fill-rule="evenodd" clip-rule="evenodd" d="M1925.74 1865.36C1925.74 1850.69 1937.67 1838.76 1952.31 1838.76C1966.98 1838.76 1978.91 1850.69 1978.91 1865.36C1978.91 1880.03 1966.98 1891.96 1952.31 1891.96C1937.66 1891.96 1925.74 1880.03 1925.74 1865.36Z" fill="black"/>
<path fill-rule="evenodd" clip-rule="evenodd" d="M1943.36 1867.01H1955.5C1961.46 1867.01 1962.09 1870.58 1962.09 1873.63C1962.09 1875.01 1962.25 1880.64 1962.95 1882.9H1969.08V1882.09C1967.57 1881.24 1967.28 1880.45 1967.23 1878.4L1966.93 1871.68C1966.72 1866.52 1964.59 1865.6 1962.49 1864.74C1964.85 1863.38 1967.63 1861.34 1967.63 1855.87C1967.63 1848.06 1961.57 1845.96 1955.49 1845.96H1938.37V1882.9H1943.36V1867.01Z" fill="white"/>
<path fill-rule="evenodd" clip-rule="evenodd" d="M1943.36 1850.19H1955.85C1958.33 1850.19 1962.52 1850.64 1962.52 1856.4C1962.52 1861.87 1958.64 1862.81 1954.97 1862.81H1943.36V1850.19Z" fill="black"/>
</svg>
