<svg width="313" height="97" viewBox="0 0 313 97" fill="none" xmlns="http://www.w3.org/2000/svg"><g clip-path="url(#clip0_398_1249)"><path d="M25.859 0.6073C32.5263 0.6073 38.1471 2.85115 42.7044 7.33884C47.2618 11.8265 49.5405 17.3434 49.5405 23.8725C49.5405 30.4015 47.2618 35.9184 42.7044 40.4061C38.1471 44.8938 32.5347 47.1376 25.859 47.1376H13.6722V70.0991H0V0.6073H25.859ZM25.859 34.3747C28.7622 34.3747 31.1759 33.3708 33.0917 31.3548C35.0075 29.3387 35.9612 26.8502 35.9612 23.8809C35.9612 20.9116 34.9991 18.3388 33.0917 16.3564C31.1759 14.3741 28.7622 13.3871 25.859 13.3871H13.6722V34.3831H25.859V34.3747Z" fill="white"></path><path d="M80.8093 19.2161C86.2276 19.2161 90.7006 21.0297 94.2368 24.6654C97.7645 28.2927 99.5368 33.3118 99.5368 39.7144V70.116H86.7593V41.3003C86.7593 38.002 85.8646 35.4713 84.0839 33.7252C82.3031 31.979 79.9232 31.1017 76.9524 31.1017C73.6525 31.1017 71.0109 32.1224 69.0276 34.1723C67.0443 36.2221 66.0569 39.2926 66.0569 43.3838V70.1244H53.2793V0.582031H66.0569V26.1501C69.1626 21.5274 74.083 19.2161 80.8178 19.2161H80.8093Z" fill="white"></path><path d="M105.588 70.116V20.5995H118.366V70.1075H105.588V70.116Z" fill="white"></path><path d="M163.906 20.5995H176.388V67.7372C176.388 75.3966 173.865 81.234 168.809 85.2662C163.754 89.2899 157.66 91.306 150.529 91.306C145.178 91.306 140.477 90.2853 136.41 88.2355C132.35 86.1856 129.227 83.1826 127.05 79.2263L137.946 72.9841C140.452 77.6067 144.782 79.9181 150.926 79.9181C154.951 79.9181 158.125 78.8636 160.437 76.7463C162.75 74.629 163.906 71.6259 163.906 67.7372V62.389C160.142 67.4082 154.859 69.9135 148.056 69.9135C141.254 69.9135 135.194 67.4588 130.468 62.5325C125.742 57.6145 123.387 51.6253 123.387 44.5564C123.387 37.4874 125.767 31.5825 130.519 26.6309C135.27 21.6792 141.119 19.2076 148.056 19.2076C154.994 19.2076 160.142 21.7214 163.906 26.7321V20.5911V20.5995ZM140.081 54.3163C142.689 56.8554 146.005 58.1291 150.04 58.1291C154.074 58.1291 157.39 56.8554 159.998 54.3163C162.606 51.7772 163.914 48.5211 163.914 44.5648C163.914 40.6085 162.606 37.4537 159.998 34.9061C157.39 32.367 154.074 31.0933 150.04 31.0933C146.005 31.0933 142.689 32.367 140.081 34.9061C137.473 37.4452 136.165 40.6676 136.165 44.5648C136.165 48.462 137.464 51.7772 140.081 54.3163Z" fill="white"></path><path d="M236.638 19.2161C242.318 19.2161 246.859 21.0634 250.26 24.7582C253.661 28.453 255.366 33.4046 255.366 39.6131V70.116H242.588V40.5073C242.588 37.538 241.862 35.2267 240.411 33.5733C238.959 31.92 236.908 31.1017 234.267 31.1017C231.364 31.1017 229.102 32.0634 227.481 33.9698C225.861 35.8846 225.051 38.6599 225.051 42.2872V70.116H212.273V40.5073C212.273 37.538 211.547 35.2267 210.096 33.5733C208.644 31.92 206.593 31.1017 203.952 31.1017C201.108 31.1017 198.846 32.0634 197.166 33.9698C195.478 35.8846 194.643 38.6599 194.643 42.2872V70.116H181.865V20.5995H194.643V25.8464C197.614 21.4262 202.205 19.2161 208.416 19.2161C214.628 19.2161 218.983 21.5949 221.886 26.3441C225.186 21.5949 230.106 19.2161 236.647 19.2161H236.638Z" fill="white"></path><path d="M300.155 20.5995H312.933V70.1076H300.155V64.2617C296.323 69.0784 290.939 71.491 284.01 71.491C277.081 71.491 271.739 68.9688 267.021 63.9159C262.295 58.863 259.94 52.6798 259.94 45.3493C259.94 38.0188 262.303 31.8356 267.021 26.7827C271.739 21.7299 277.41 19.2076 284.01 19.2076C290.947 19.2076 296.332 21.6202 300.155 26.4369V20.5911V20.5995ZM276.575 55.4044C279.149 58.011 282.423 59.3185 286.381 59.3185C290.34 59.3185 293.631 58.0195 296.239 55.4044C298.847 52.7979 300.155 49.449 300.155 45.3493C300.155 41.2496 298.847 37.9092 296.239 35.3026C293.631 32.696 290.34 31.3885 286.381 31.3885C282.423 31.3885 279.149 32.696 276.575 35.3026C274.001 37.9092 272.709 41.2581 272.709 45.3493C272.709 49.4405 274.001 52.7894 276.575 55.4044Z" fill="white"></path><path d="M111.977 15.7744C116.335 15.7744 119.868 12.2432 119.868 7.88721C119.868 3.53122 116.335 0 111.977 0C107.619 0 104.086 3.53122 104.086 7.88721C104.086 12.2432 107.619 15.7744 111.977 15.7744Z" fill="white"></path><path d="M196.381 90.8927H198.171C197.377 94.5115 194.381 97 190.347 97C185.612 97 181.823 93.28 181.823 88.4548C181.823 83.6297 185.612 79.9097 190.347 79.9097C194.381 79.9097 197.377 82.3981 198.171 86.017H196.381C195.681 83.3092 193.436 81.5462 190.339 81.5462C186.524 81.5462 183.553 84.5155 183.553 88.4548C183.553 92.3942 186.524 95.3635 190.339 95.3635C193.427 95.3635 195.681 93.6005 196.381 90.8927Z" fill="white"></path><path d="M211.193 90.7914V96.6625H209.454V90.7914H209.429L202.644 80.2385H204.551L210.298 89.197L216.071 80.2385H217.978L211.193 90.7914Z" fill="white"></path><path d="M237.305 90.8927H239.094C238.301 94.5115 235.305 97 231.271 97C226.536 97 222.747 93.28 222.747 88.4548C222.747 83.6297 226.536 79.9097 231.271 79.9097C235.305 79.9097 238.301 82.3981 239.094 86.017H237.305C236.604 83.3092 234.359 81.5462 231.262 81.5462C227.447 81.5462 224.477 84.5155 224.477 88.4548C224.477 92.3942 227.447 95.3635 231.262 95.3635C234.351 95.3635 236.604 93.6005 237.305 90.8927Z" fill="white"></path><path d="M257.72 96.6625H246.85V80.2385H248.563V95.1103H257.72V96.654V96.6625Z" fill="white"></path><path d="M266.396 96.6625H264.683V80.2385H266.396V96.6625Z" fill="white"></path><path d="M288.795 96.6625H287.318L276.591 83.3344V96.6625H274.878V80.2385H276.304L287.082 93.71V80.2385H288.795V96.6625Z" fill="white"></path><path d="M312.974 88.4547V96.6625H311.574L311.43 93.1618C310.274 95.4815 308.122 96.9999 305.05 96.9999C300.222 96.9999 296.568 93.1871 296.568 88.5475C296.568 83.6212 300.408 79.9011 305.168 79.9011C308.763 79.9011 312.055 82.0269 312.949 85.6457H311.109C310.291 82.9379 307.75 81.5376 305.193 81.5376C301.328 81.5376 298.306 84.5069 298.306 88.5391C298.306 92.2592 301.134 95.3212 305.05 95.3212C308.552 95.3212 310.755 92.8581 311.185 89.6188H304.906V88.0498H313L312.949 88.4379H312.974V88.4547Z" fill="white"></path></g><defs><clipPath id="clip0_398_1249"><rect width="313" height="97" fill="white"></rect></clipPath></defs></svg>