<svg width="3088" height="544" viewBox="0 0 3088 544" fill="none" xmlns="http://www.w3.org/2000/svg">
<path d="M1555.83 0.200053C1555.16 0.46672 1550.1 1.40005 1544.9 2.33339C1539.3 3.26672 1533.3 5.13339 1530.76 6.86672C1526.5 9.80005 1524.9 9.93339 1487.7 10.7334C1453.3 11.5334 1412.1 14.2001 1399.16 16.4667C1388.76 18.3334 1381.56 25.8001 1376.36 40.3334C1372.36 51.2667 1371.3 78.7334 1374.36 93.0001C1378.63 113.267 1389.96 130.067 1403.56 136.467C1412.36 140.467 1419.16 140.6 1479.16 137C1503.7 135.533 1526.23 134.333 1529.3 134.333H1534.76L1535.7 155.267C1537.3 193.933 1539.16 278.067 1540.5 375C1541.16 427.8 1542.1 484.867 1542.63 501.8C1543.7 540.333 1545.03 543.667 1551.3 523.267C1552.9 518.333 1554.36 514.333 1554.5 514.333C1554.76 514.333 1556.1 517.667 1557.3 521.667C1558.63 525.667 1560.1 529 1560.5 529C1561.03 529 1563.7 525.667 1566.36 521.667C1569.56 516.867 1572.1 514.333 1573.83 514.333C1575.56 514.333 1577.03 513 1577.96 510.733C1582.5 498.867 1585.7 495.4 1589.3 498.467C1591.16 500.067 1591.83 498.867 1600.5 478.867C1602.36 474.733 1603.56 473.4 1605.96 473.533C1608.5 473.667 1609.96 471.4 1616.76 456.333L1624.63 439L1627.83 410.333C1637.43 323.933 1645.96 216.6 1648.1 153.667C1648.76 131.133 1649.16 127.667 1651.03 127.667C1661.56 127.8 1745.43 123.267 1750.9 122.2C1754.63 121.4 1764.1 117.667 1771.83 113.667L1785.83 106.6V111.4C1785.83 114.2 1786.36 128.867 1787.16 144.333C1789.16 188.733 1791.03 267 1793.16 397C1795.3 526.867 1795.96 543.667 1798.5 543.667C1802.9 543.667 1807.3 537.8 1810.1 528.2C1812.9 518.467 1812.9 518.333 1815.96 520.333C1818.9 522.2 1819.16 521.933 1825.16 513.8C1830.1 507.133 1833.56 504.067 1841.3 499.667C1846.76 496.6 1851.56 493.4 1852.1 492.733C1852.5 491.933 1854.76 485.933 1857.16 479.267C1861.16 468.2 1861.83 467 1865.96 465.667C1869.83 464.333 1870.63 463.267 1871.56 458.2C1873.3 448.6 1873.7 447.933 1875.96 450.867C1876.9 452.333 1878.1 453.267 1878.36 452.867C1880.36 450.867 1894.5 246.6 1897.83 170.333C1898.5 153.133 1899.43 134.467 1899.7 129C1900.63 113.133 1898.23 85.5334 1894.5 71.1334C1885.83 36.6001 1866.36 15.8001 1837.16 9.66672C1813.83 4.73339 1780.63 10.0667 1778.36 19.0001C1777.56 22.4667 1777.3 22.4667 1769.96 21.8001C1750.9 19.8001 1637.96 13.0001 1623.43 13.0001C1615.43 13.0001 1612.9 12.4667 1608.76 9.80005C1599.83 3.93339 1587.83 0.733386 1571.83 0.200053C1563.83 -0.0666136 1556.63 -0.0666136 1555.83 0.200053Z" fill="#176B87"/>
<path d="M2413.16 2.33348C2402.1 4.20015 2397.3 5.93348 2393.83 9.66682C2390.5 13.2668 2390.5 10.6002 2393.83 45.6668C2397.16 81.1335 2398.1 124.467 2398.76 269.667L2399.43 424.334L2394.36 427C2389.83 429.4 2388.9 430.734 2386.23 439.267C2376.23 471.4 2380.9 506.734 2397.43 522.6C2408.9 533.8 2419.16 534.334 2447.96 525.534C2504.9 508.2 2549.3 499.8 2595.16 497.667C2616.76 496.6 2647.56 498.734 2654.63 501.667L2659.03 503.534L2661.16 495.934C2662.36 491.8 2663.7 487.267 2664.1 485.934C2664.5 484.2 2665.96 486.334 2669.03 493.267C2677.03 511.8 2688.76 525 2697.03 525C2699.7 525 2707.83 521.934 2717.3 517.534C2797.43 479.934 2917.7 438.734 2993.43 423L3008.76 419.8L3022.36 406.6C3034.1 395.134 3037.7 392.6 3049.43 386.867C3056.9 383.267 3063.03 379.934 3063.03 379.267C3063.16 378.734 3060.9 378.334 3058.23 378.2C3045.83 377.934 3045.96 376.6 3059.03 370.467C3068.5 365.934 3071.43 363.934 3071.96 361.4C3072.5 359.534 3076.1 354.467 3079.96 350.067C3091.03 337.667 3090.5 336.867 3069.16 334.334C3030.76 329.934 2970.5 334.734 2909.16 347C2871.43 354.6 2806.63 371.534 2782.1 380.2C2776.5 382.2 2776.5 382.2 2777.16 379.267C2778.1 374.867 2782.76 340.067 2785.16 318.334C2786.36 307.667 2787.56 298.867 2787.83 298.6C2788.36 297.934 2863.7 278.333 2865.43 278.333C2866.36 278.333 2875.03 274.867 2884.63 270.6C2899.56 264.067 2902.63 262.333 2905.3 258.2C2908.1 253.667 2909.3 253.133 2921.03 250.2C2933.43 247.267 2933.83 247 2933.83 243.4C2933.83 240.2 2935.43 238.6 2945.56 232.067C2956.5 224.867 2957.03 224.467 2953.43 223.8C2949.83 223 2950.1 222.733 2959.03 217.933C2969.56 212.2 2970.36 211.133 2971.7 201.933C2972.23 198.467 2973.56 193.4 2974.76 190.6C2975.96 187.933 2977.3 183.933 2977.96 181.8L2979.16 177.933L2944.76 178.733C2906.23 179.667 2867.83 182.2 2826.76 186.467C2811.43 188.067 2798.9 189.133 2798.63 188.867C2798.5 188.6 2799.03 178.733 2799.96 167C2800.9 155.267 2801.7 140.2 2801.7 133.4C2801.83 123 2802.23 121.133 2804.23 120.467C2805.43 120.067 2837.16 115 2874.5 109C2941.03 98.4668 2942.76 98.0668 2957.83 92.0668C2973.96 85.6668 2976.5 83.8002 2976.5 78.7335C2976.5 76.2002 2978.63 74.6002 2988.9 69.4002L3001.16 63.0002L2994.1 62.6002L2987.03 62.2002L2992.76 58.0668C2995.96 55.8002 3001.7 51.0002 3005.7 47.5335C3009.56 44.0668 3015.43 39.8002 3018.63 38.0668L3024.5 35.0002V26.7335C3024.5 22.2002 3024.9 17.6668 3025.3 16.4668C3026.1 14.4668 3017.03 14.3335 2929.03 14.3335C2835.3 14.3335 2791.56 15.4002 2759.16 18.4668C2750.76 19.2668 2736.63 20.0668 2727.83 20.3335C2711.03 21.0002 2702.9 22.2002 2688.1 26.4668C2681.43 28.4668 2679.16 29.6668 2679.7 31.1335C2681.16 35.0002 2684.5 62.6002 2685.83 82.3335C2688.5 121.533 2690.1 239.133 2689.03 327.8L2688.23 415.4L2683.3 416.734C2671.3 420.467 2660.5 432.334 2660.5 442.067C2660.5 444.734 2660.1 445 2658.63 443.667C2657.56 442.867 2657.03 441.267 2657.43 440.2C2658.63 437 2647.43 427.667 2635.83 422.2C2607.16 408.734 2556.23 401 2508.23 402.734C2495.83 403.134 2487.16 403 2487.16 402.334C2487.16 401.667 2489.83 374.467 2493.16 342.067C2499.83 275.4 2505.96 203.267 2509.3 153C2512.1 110.2 2511.3 78.7335 2507.3 62.3335C2499.56 31.8002 2482.23 12.0668 2456.5 4.33348C2447.7 1.80015 2424.23 0.600151 2413.16 2.33348Z" fill="#176B87"/>
<path d="M20.0968 4.46688C-1.10317 8.33354 -2.0365 9.80021 1.69683 36.4669C8.63017 86.4669 13.2968 177 18.4968 361.667C19.5635 401.934 21.1635 449.534 21.8302 467.267C22.6302 485 23.1635 501 23.1635 502.6C23.1635 504.333 23.8302 506.6 24.4968 507.667C25.6968 509.267 26.4968 508.867 29.6968 505C33.1635 500.867 33.8302 500.6 36.8968 501.933C40.0968 503.4 40.4968 503.133 44.4968 496.867C47.4302 492.334 49.6968 490.333 51.6968 490.333C53.9635 490.333 55.4302 488.467 58.4968 481.933C61.5635 475.534 63.9635 472.734 68.6302 469.667C73.9635 466.2 75.6968 463.8 80.8968 453C84.3635 446.067 89.6968 435.8 93.0302 430.334L99.0302 420.334L102.364 377.667C114.497 224.2 119.297 104.334 114.497 74.6002C110.63 50.7335 103.164 34.2002 90.4968 21.6669C73.6968 4.86688 49.9635 -0.999791 20.0968 4.46688Z" fill="#176B87"/>
<path d="M191.428 5.53331C176.762 8.33331 177.428 7.79997 178.495 16.7333C187.295 93.5333 182.762 315.267 168.895 491.267C167.695 506.867 167.162 520.067 167.695 520.6C168.895 521.667 170.095 520.333 176.895 509.667C179.295 505.933 182.362 502.867 183.828 502.6C185.295 502.467 189.428 503.8 193.028 505.667C196.628 507.533 199.828 508.733 200.228 508.333C200.628 507.933 202.228 505.4 203.828 502.733C206.095 498.467 207.828 497.4 215.695 494.867L224.762 492.067L238.228 468.2L251.828 444.333L256.628 444.733L261.428 445.133L263.028 434.733C269.295 393.8 274.495 355.533 279.162 317.667C282.095 293.4 285.028 270.2 285.562 266.067L286.495 258.467L305.695 305.4C316.362 331.267 332.895 371.667 342.628 395.133C352.362 418.733 361.028 441.667 361.828 446.067C364.095 457.533 370.628 468.6 378.228 473.8C393.028 483.933 418.228 482.467 434.762 470.467C439.828 466.867 440.495 465.267 453.695 428.867C473.295 374.867 491.828 321.933 509.162 269.933C522.628 229.667 524.362 225.267 525.028 229.933C525.428 232.733 527.295 245.133 529.295 257.667C543.162 349.4 563.695 433.8 585.828 489.8C596.895 517.667 607.162 535.4 607.162 526.6C607.162 522.867 609.962 521 615.428 521C620.762 521 621.028 520.333 622.095 508.333C622.495 504.867 623.162 504.2 627.028 503.667C631.428 503 631.695 502.733 634.628 491.933C636.228 485.8 637.962 477.8 638.495 473.933C639.695 465.267 641.028 462.6 644.628 462.067C647.028 461.8 648.095 459.533 651.028 448.867L654.628 436.067L651.562 412.867C647.828 383.667 647.828 381.667 651.962 395.533C662.228 430.333 680.095 455.8 707.162 474.333C712.628 478.067 717.562 482.2 718.095 483.4C718.628 484.6 719.028 492.6 719.028 501.133C719.162 523.533 720.495 537 722.628 537C723.562 537 725.695 534.733 727.295 531.933C729.028 529.267 731.828 525.667 733.562 524.2C735.562 522.2 737.028 518.6 738.095 512.867C739.562 504.733 739.562 504.6 741.428 508.067C744.628 514.2 748.895 512.867 753.962 504.2C757.962 497.133 758.362 496.733 762.362 497.667C794.095 504.333 823.295 505.933 876.495 503.933C930.095 501.933 954.095 498.6 985.562 488.2C1031.43 473.267 1063.43 448.067 1079.96 413.667C1088.9 395.267 1091.43 384.067 1092.1 358.733C1093.16 326.067 1089.03 304.867 1077.16 280.067C1057.43 239.533 1015.7 208.2 961.162 193C955.295 191.4 950.095 189.8 949.562 189.4C949.028 189.133 954.628 184.733 962.228 179.8C980.228 167.667 996.895 150.467 1003.7 137L1008.63 127L1007.83 113C1005.03 67.4 992.095 33.8 975.428 29C940.762 19.1333 868.628 17.9333 788.895 25.8C781.562 26.6 779.428 26.2 772.228 23C757.028 16.2 732.762 16.7333 706.762 24.6C697.295 27.4 695.162 28.4666 695.962 30.2C698.495 36.4666 698.362 36.7333 690.228 38.2C685.962 39.1333 681.162 40.0666 679.562 40.3333C671.028 42.2 672.362 77.2666 681.695 95.4C685.562 103.133 691.428 107.4 699.162 108.467C704.895 109.267 705.828 109.8 706.362 112.867C707.562 118.733 710.228 173.933 709.562 175.933C709.162 177 702.362 179.4 693.962 181.533L679.028 185.4L679.828 189.133C680.628 192.467 680.228 193 676.895 193.667C674.895 194.2 670.628 195.4 667.562 196.467C662.495 198.333 661.828 199.133 659.162 206.733C657.028 212.467 655.962 219.4 655.562 229.667C654.762 246.733 657.028 255.133 665.162 266.333C673.428 277.533 674.362 277.933 695.295 277L713.562 276.333L714.362 311.667C714.762 331.133 715.562 356.467 715.962 368.2L716.762 389.4L712.095 388.467C701.162 386.467 676.095 377.667 661.562 370.733L646.095 363.4L645.295 357.8C643.962 348.067 639.295 294.6 637.295 265C633.562 213 632.362 178.467 631.295 109.667C630.228 44.8666 630.095 41.2666 627.295 32.6C620.628 12.0666 604.628 3.66664 572.628 3.66664C550.362 3.66664 527.695 8.59997 511.428 16.8666L505.828 19.6666V28.0666C505.828 36.0666 505.028 38.2 489.962 69.8C459.162 134.6 434.762 190.2 413.028 245.667C406.095 263.267 399.695 279.4 398.762 281.4C397.295 284.867 396.628 283.267 389.962 258.067C366.362 169.133 327.828 35 323.828 28.2C318.095 18.4666 309.162 12.0666 293.828 6.86664C287.962 4.86664 282.495 4.33331 266.495 4.33331C255.562 4.33331 243.562 4.46664 239.828 4.73331C236.228 4.99997 225.962 4.86664 217.162 4.46664C206.228 3.93331 198.095 4.33331 191.428 5.53331ZM905.162 99.5333C907.428 103.267 864.495 125.667 829.828 138.733C819.162 142.733 809.162 146.467 807.562 146.867C804.628 147.8 804.628 147.8 804.228 126.067C803.962 114.067 804.095 103.933 804.495 103.4C806.762 100.467 903.428 96.7333 905.162 99.5333ZM845.295 277C921.162 283 969.028 297.133 991.562 320.2C997.428 326.333 1001.7 334.467 1001.83 339.933C1001.83 342.867 1000.23 344.467 991.562 349.933C976.095 359.667 965.428 365.4 949.695 372.067C910.228 388.867 868.362 397.533 817.962 399.267L793.562 400.067L794.362 396.2C796.895 383.667 803.162 304.733 803.162 285.4V275.667H815.695C822.495 275.667 835.828 276.333 845.295 277Z" fill="#176B87"/>
<path d="M1200.5 16.4667C1190.63 17.5334 1181.83 19.1334 1181.03 20.0667C1180.23 21.0001 1177.96 33.4001 1175.96 47.6667C1164.36 131 1139.83 221.8 1104.5 312.333C1094.23 338.867 1094.36 338.333 1097.03 338.333C1100.36 338.333 1102.76 344.733 1104.23 358.067C1107.3 383.533 1118.23 397.267 1137.03 399.267C1141.43 399.667 1151.56 398.733 1164.9 396.467C1207.7 389.267 1230.36 387.267 1269.83 387.133C1297.7 387.133 1310.5 387.667 1323.16 389.4C1345.83 392.6 1367.7 397.667 1373.16 401L1377.56 403.667L1382.63 391C1385.3 384.067 1388.1 378.333 1388.76 378.333C1389.43 378.333 1390.9 380.467 1391.96 383C1393.03 385.533 1394.23 387.667 1394.63 387.667C1395.03 387.667 1397.16 386.333 1399.43 384.867L1403.3 382.067L1410.23 386.333L1417.16 390.6L1419.7 387.133L1422.36 383.667L1428.1 389.267C1431.7 392.733 1433.83 394.067 1433.83 392.867C1433.83 391.667 1431.16 383.667 1427.96 374.867C1394.9 284.867 1365.83 172.067 1351.16 77.0001C1347.7 55.0001 1343.96 45.8001 1334.9 37.6667C1326.63 30.3334 1317.16 26.7334 1300.9 24.8667C1293.83 24.0667 1286.9 22.7334 1285.3 21.6667C1274.76 14.8667 1235.96 12.6001 1200.5 16.4667ZM1287.43 253.667C1304.63 296.2 1304.23 295 1301.43 293.933C1293.56 290.867 1251.56 283.533 1231.7 281.667L1222.23 280.733L1235.16 253.267C1242.23 238.067 1251.3 217.8 1255.3 208.2L1262.5 190.733L1267.7 204.2C1270.5 211.667 1279.43 233.8 1287.43 253.667Z" fill="#176B87"/>
<path d="M2006.9 20.3333C2001.97 21.2666 1993.7 23.5333 1988.5 25.1333C1981.17 27.5333 1979.3 28.6 1979.97 30.3333C1982.5 36.4666 1982.37 36.7333 1974.23 38.2C1969.97 39.1333 1965.17 40.0666 1963.57 40.3333C1955.03 42.2 1956.37 77.2666 1965.7 95.4C1969.57 103.133 1975.43 107.4 1983.17 108.467C1988.9 109.267 1989.83 109.8 1990.37 112.867C1991.57 118.733 1994.23 173.933 1993.57 175.933C1993.17 177 1986.37 179.4 1977.97 181.533L1963.03 185.4L1963.83 189.133C1964.63 192.467 1964.23 193 1960.9 193.667C1958.9 194.2 1954.63 195.4 1951.57 196.467C1946.5 198.333 1945.83 199.133 1943.17 206.733C1941.03 212.467 1939.97 219.4 1939.57 229.667C1938.77 246.733 1941.03 255.133 1949.17 266.333C1957.43 277.533 1958.37 277.933 1979.3 277L1997.57 276.333L1998.37 311.667C1998.77 331.133 1999.57 356.467 1999.97 368.2L2000.77 389.4L1995.7 388.333C1985.17 386.467 1955.43 375.8 1943.3 369.8C1936.5 366.333 1930.63 363.8 1930.23 364.2C1929.03 365.4 1933.57 388.067 1937.3 400.067C1947.43 431.933 1965.3 456.6 1991.17 474.333C1996.63 478.067 2001.57 482.2 2002.1 483.4C2002.63 484.6 2003.03 492.6 2003.03 501.133C2003.17 523.533 2004.5 537 2006.63 537C2007.57 537 2009.7 534.733 2011.3 531.933C2013.03 529.267 2015.83 525.667 2017.57 524.2C2019.57 522.2 2021.03 518.6 2022.1 512.867C2023.57 504.733 2023.57 504.6 2025.43 508.067C2028.63 514.2 2032.9 512.867 2037.97 504.2C2041.97 497.133 2042.37 496.733 2046.37 497.667C2078.1 504.333 2107.3 505.933 2160.5 503.933C2214.1 501.933 2238.1 498.6 2269.57 488.2C2315.43 473.267 2347.43 448.067 2363.97 413.667C2372.9 395.267 2375.43 384.067 2376.1 358.733C2377.17 326.067 2373.03 304.867 2361.17 280.067C2341.43 239.533 2299.7 208.2 2245.17 193C2239.3 191.4 2234.1 189.8 2233.57 189.4C2233.03 189.133 2238.63 184.733 2246.23 179.8C2264.23 167.667 2280.9 150.467 2287.7 137L2292.63 127L2291.83 113C2289.03 67.4 2276.1 33.8 2259.43 29C2224.77 19.1333 2152.63 17.9333 2072.9 25.8C2065.57 26.6 2063.57 26.2 2056.23 22.8666C2048.77 19.5333 2046.1 19.1333 2031.83 18.7333C2021.97 18.6 2012.37 19.1333 2006.9 20.3333ZM2189.17 99.5333C2191.43 103.267 2148.5 125.667 2113.83 138.733C2103.17 142.733 2093.17 146.467 2091.57 146.867C2088.63 147.8 2088.63 147.8 2088.23 126.067C2087.97 114.067 2088.1 103.933 2088.5 103.4C2090.77 100.467 2187.43 96.7333 2189.17 99.5333ZM2129.3 277C2205.17 283 2253.03 297.133 2275.57 320.2C2281.43 326.333 2285.7 334.467 2285.83 339.933C2285.83 342.867 2284.23 344.467 2275.57 349.933C2260.1 359.667 2249.43 365.4 2233.7 372.067C2194.23 388.867 2152.37 397.533 2101.97 399.267L2077.57 400.067L2078.37 396.2C2080.9 383.667 2087.17 304.733 2087.17 285.4V275.667H2099.7C2106.5 275.667 2119.83 276.333 2129.3 277Z" fill="#176B87"/>
<path d="M1206.5 415.667C1182.36 417.133 1153.43 421.133 1136.36 425.533C1120.76 429.533 1102.36 436.467 1099.03 439.8C1095.7 443.133 1091.43 457.933 1089.56 472.467C1086.9 493.4 1091.3 516.067 1100.5 528.867C1110.76 542.867 1125.03 545.667 1149.83 538.6C1199.03 524.467 1272.5 514.467 1343.16 512.2C1374.76 511.267 1412.63 513.267 1420.76 516.6C1423.56 517.667 1426.1 518.467 1426.36 518.2C1426.63 517.933 1428.76 510.733 1431.03 502.333L1435.16 487L1430.76 478.333C1428.5 473.533 1426.36 469.267 1426.1 468.6C1425.83 468.067 1426.9 467.667 1428.36 467.667C1431.96 467.667 1431.83 466.6 1427.16 461.133C1425.16 458.733 1423.7 455.933 1423.96 455C1425.7 450.733 1408.1 440.067 1389.16 433.933C1346.36 419.933 1268.36 412.067 1206.5 415.667Z" fill="#176B87"/>
</svg>
